<mxfile host="app.diagrams.net" agent="Mozilla/5.0 (Windows NT 10.0; Win64; x64; rv:144.0) Gecko/20100101 Firefox/144.0" version="28.2.8">
  <diagram name="Page-1" id="reO1sDrfc8gLjoZBzr0u">
    <mxGraphModel grid="1" page="1" gridSize="10" guides="1" tooltips="1" connect="1" arrows="1" fold="1" pageScale="1" pageWidth="850" pageHeight="1100" math="0" shadow="0">
      <root>
        <mxCell id="0" />
        <mxCell id="1" parent="0" />
        <mxCell id="fb-j_Q9x-hQx4NVGqNk3-2" value="&lt;div&gt;Student&amp;nbsp;&lt;/div&gt;&lt;div&gt;Management system&lt;/div&gt;" style="ellipse;whiteSpace=wrap;html=1;aspect=fixed;" vertex="1" parent="1">
          <mxGeometry x="345" y="242.56" width="160" height="160" as="geometry" />
        </mxCell>
        <mxCell id="fb-j_Q9x-hQx4NVGqNk3-3" value="Student" style="whiteSpace=wrap;html=1;aspect=fixed;" vertex="1" parent="1">
          <mxGeometry x="20" y="247.56" width="150" height="150" as="geometry" />
        </mxCell>
        <mxCell id="fb-j_Q9x-hQx4NVGqNk3-6" value="" style="endArrow=classic;html=1;rounded=0;entryX=1;entryY=0.5;entryDx=0;entryDy=0;exitX=0;exitY=0.5;exitDx=0;exitDy=0;" edge="1" parent="1" source="fb-j_Q9x-hQx4NVGqNk3-2" target="fb-j_Q9x-hQx4NVGqNk3-3">
          <mxGeometry width="50" height="50" relative="1" as="geometry">
            <mxPoint x="270" y="340" as="sourcePoint" />
            <mxPoint x="320" y="290" as="targetPoint" />
          </mxGeometry>
        </mxCell>
        <mxCell id="fb-j_Q9x-hQx4NVGqNk3-8" value="Financal summary" style="text;html=1;whiteSpace=wrap;strokeColor=none;fillColor=none;align=center;verticalAlign=middle;rounded=0;" vertex="1" parent="1">
          <mxGeometry x="210.16" y="300" width="110" height="30" as="geometry" />
        </mxCell>
        <mxCell id="fb-j_Q9x-hQx4NVGqNk3-9" value="Payment" style="text;html=1;whiteSpace=wrap;strokeColor=none;fillColor=none;align=center;verticalAlign=middle;rounded=0;" vertex="1" parent="1">
          <mxGeometry x="210.16" y="325" width="110" height="30" as="geometry" />
        </mxCell>
        <mxCell id="fb-j_Q9x-hQx4NVGqNk3-11" style="edgeStyle=orthogonalEdgeStyle;rounded=0;orthogonalLoop=1;jettySize=auto;html=1;exitX=0.994;exitY=0.668;exitDx=0;exitDy=0;entryX=0.028;entryY=0.661;entryDx=0;entryDy=0;entryPerimeter=0;exitPerimeter=0;" edge="1" parent="1" source="fb-j_Q9x-hQx4NVGqNk3-3" target="fb-j_Q9x-hQx4NVGqNk3-2">
          <mxGeometry relative="1" as="geometry">
            <mxPoint x="200" y="347.5" as="sourcePoint" />
            <mxPoint x="365.07000000000005" y="347.29999999999995" as="targetPoint" />
          </mxGeometry>
        </mxCell>
        <mxCell id="fb-j_Q9x-hQx4NVGqNk3-12" value="" style="endArrow=classic;html=1;rounded=0;exitX=0;exitY=0.5;exitDx=0;exitDy=0;entryX=0.971;entryY=0.297;entryDx=0;entryDy=0;entryPerimeter=0;" edge="1" parent="1" target="fb-j_Q9x-hQx4NVGqNk3-2">
          <mxGeometry width="50" height="50" relative="1" as="geometry">
            <mxPoint x="685.16" y="290" as="sourcePoint" />
            <mxPoint x="510.64000000000004" y="291.40000000000003" as="targetPoint" />
          </mxGeometry>
        </mxCell>
        <mxCell id="fb-j_Q9x-hQx4NVGqNk3-20" value="Notifications" style="text;html=1;whiteSpace=wrap;strokeColor=none;fillColor=none;align=center;verticalAlign=middle;rounded=0;" vertex="1" parent="1">
          <mxGeometry x="209.71" y="270" width="110" height="20" as="geometry" />
        </mxCell>
        <mxCell id="fb-j_Q9x-hQx4NVGqNk3-21" value="" style="endArrow=classic;html=1;rounded=0;entryX=1.003;entryY=0.215;entryDx=0;entryDy=0;entryPerimeter=0;exitX=0.045;exitY=0.295;exitDx=0;exitDy=0;exitPerimeter=0;" edge="1" parent="1" source="fb-j_Q9x-hQx4NVGqNk3-2">
          <mxGeometry width="50" height="50" relative="1" as="geometry">
            <mxPoint x="350" y="290" as="sourcePoint" />
            <mxPoint x="169.99999999999994" y="289.81" as="targetPoint" />
          </mxGeometry>
        </mxCell>
        <mxCell id="fb-j_Q9x-hQx4NVGqNk3-22" value="Announcements" style="text;html=1;whiteSpace=wrap;strokeColor=none;fillColor=none;align=center;verticalAlign=middle;rounded=0;" vertex="1" parent="1">
          <mxGeometry x="515.16" y="270" width="140" height="20" as="geometry" />
        </mxCell>
        <mxCell id="fb-j_Q9x-hQx4NVGqNk3-28" value="Student registration Info" style="text;html=1;whiteSpace=wrap;strokeColor=none;fillColor=none;align=center;verticalAlign=middle;rounded=0;" vertex="1" parent="1">
          <mxGeometry x="515.16" y="300" width="140" height="20" as="geometry" />
        </mxCell>
        <mxCell id="fb-j_Q9x-hQx4NVGqNk3-29" value="" style="endArrow=classic;html=1;rounded=0;exitX=0;exitY=0.75;exitDx=0;exitDy=0;entryX=0.965;entryY=0.693;entryDx=0;entryDy=0;entryPerimeter=0;" edge="1" parent="1">
          <mxGeometry width="50" height="50" relative="1" as="geometry">
            <mxPoint x="685.16" y="317.5" as="sourcePoint" />
            <mxPoint x="504.56" y="318.43999999999994" as="targetPoint" />
          </mxGeometry>
        </mxCell>
        <mxCell id="0AHoBu4wBH6jh9xyL93j-1" value="" style="endArrow=classic;html=1;rounded=0;exitX=-0.001;exitY=0.882;exitDx=0;exitDy=0;entryX=1;entryY=1;entryDx=0;entryDy=0;exitPerimeter=0;" edge="1" parent="1">
          <mxGeometry width="50" height="50" relative="1" as="geometry">
            <mxPoint x="368.2799999999999" y="379.86" as="sourcePoint" />
            <mxPoint x="169.99854249492404" y="379.12854249492375" as="targetPoint" />
          </mxGeometry>
        </mxCell>
        <mxCell id="0AHoBu4wBH6jh9xyL93j-11" value="Login Credentials" style="text;html=1;whiteSpace=wrap;strokeColor=none;fillColor=none;align=center;verticalAlign=middle;rounded=0;" vertex="1" parent="1">
          <mxGeometry x="169.54" y="247.56" width="190.33" height="12.44" as="geometry" />
        </mxCell>
        <mxCell id="0AHoBu4wBH6jh9xyL93j-12" style="edgeStyle=orthogonalEdgeStyle;rounded=0;orthogonalLoop=1;jettySize=auto;html=1;exitX=1.01;exitY=0.821;exitDx=0;exitDy=0;entryX=0.141;entryY=0.159;entryDx=0;entryDy=0;exitPerimeter=0;entryPerimeter=0;" edge="1" parent="1" target="fb-j_Q9x-hQx4NVGqNk3-2">
          <mxGeometry relative="1" as="geometry">
            <mxPoint x="170.33" y="268.56" as="sourcePoint" />
            <mxPoint x="360.33" y="268.56" as="targetPoint" />
          </mxGeometry>
        </mxCell>
        <mxCell id="0AHoBu4wBH6jh9xyL93j-18" value="&lt;div&gt;Administrator&lt;/div&gt;" style="whiteSpace=wrap;html=1;aspect=fixed;" vertex="1" parent="1">
          <mxGeometry x="680" y="247.56" width="150" height="150" as="geometry" />
        </mxCell>
        <mxCell id="0AHoBu4wBH6jh9xyL93j-24" value="" style="endArrow=classic;html=1;rounded=0;entryX=1;entryY=0;entryDx=0;entryDy=0;" edge="1" parent="1" target="fb-j_Q9x-hQx4NVGqNk3-2">
          <mxGeometry width="50" height="50" relative="1" as="geometry">
            <mxPoint x="679" y="266" as="sourcePoint" />
            <mxPoint x="600" y="240" as="targetPoint" />
          </mxGeometry>
        </mxCell>
        <mxCell id="0AHoBu4wBH6jh9xyL93j-25" value="Login Credentials" style="text;html=1;whiteSpace=wrap;strokeColor=none;fillColor=none;align=center;verticalAlign=middle;rounded=0;" vertex="1" parent="1">
          <mxGeometry x="494.83000000000004" y="247.56" width="190.33" height="12.44" as="geometry" />
        </mxCell>
        <mxCell id="CztmR_qx-P8-bcWd0Ms--4" value="Management Data &amp;amp; Reports" style="text;html=1;whiteSpace=wrap;strokeColor=none;fillColor=none;align=center;verticalAlign=middle;rounded=0;" vertex="1" parent="1">
          <mxGeometry x="485.15999999999997" y="335" width="200" height="20" as="geometry" />
        </mxCell>
        <mxCell id="CztmR_qx-P8-bcWd0Ms--5" value="" style="endArrow=classic;html=1;rounded=0;exitX=0.982;exitY=0.678;exitDx=0;exitDy=0;exitPerimeter=0;entryX=-0.005;entryY=0.697;entryDx=0;entryDy=0;entryPerimeter=0;" edge="1" parent="1" source="fb-j_Q9x-hQx4NVGqNk3-2" target="0AHoBu4wBH6jh9xyL93j-18">
          <mxGeometry width="50" height="50" relative="1" as="geometry">
            <mxPoint x="644.79" y="402.87000000000006" as="sourcePoint" />
            <mxPoint x="465.54" y="402.56" as="targetPoint" />
          </mxGeometry>
        </mxCell>
        <mxCell id="VH-YBoTgHfiNGis6O3He-1" value="Profile Data &amp;amp; Confirmation" style="text;html=1;whiteSpace=wrap;strokeColor=none;fillColor=none;align=center;verticalAlign=middle;rounded=0;" vertex="1" parent="1">
          <mxGeometry x="204.71" y="350" width="120" height="30" as="geometry" />
        </mxCell>
      </root>
    </mxGraphModel>
  </diagram>
</mxfile>
